<svg width="220" height="40" viewBox="0 0 220 40" fill="none" xmlns="http://www.w3.org/2000/svg">
<path fill-rule="evenodd" clip-rule="evenodd" d="M170.387 29.0188L161.783 9.6447C161.73 9.5303 161.638 9.4692 161.516 9.4692H155.747C155.64 9.4692 155.556 9.515 155.495 9.6066C155.434 9.6982 155.427 9.7897 155.473 9.8889L167.964 37.8246C168.017 37.939 168.109 38.0001 168.23 38.0001H173.139C173.26 38.0001 173.36 37.939 173.405 37.8246L186.057 9.8889C186.102 9.7897 186.095 9.6982 186.034 9.6066C185.973 9.515 185.889 9.4692 185.782 9.4692H180.005C179.883 9.4692 179.784 9.5303 179.739 9.6447L171.005 29.0188C170.951 29.1486 170.829 29.2249 170.692 29.2249C170.563 29.2249 170.441 29.1486 170.387 29.0188Z" fill="#fff"/>
<path fill-rule="evenodd" clip-rule="evenodd" d="M80.4114 37.7025C80.4114 37.8627 80.5409 38.0001 80.7086 38.0001H85.952C86.1121 38.0001 86.2493 37.8703 86.2493 37.7025V24.3947C86.2493 24.2955 86.2493 24.2039 86.2493 24.1047C86.2493 23.6164 86.2874 23.1204 86.3712 22.6397C87.08 18.3589 90.7915 15.2227 95.1204 15.2227H96.073C96.2331 15.2227 96.3703 15.093 96.3703 14.9251V9.6753C96.3703 9.515 96.2407 9.3777 96.073 9.3777H95.1204C87.7125 9.3777 81.4326 14.9099 80.5257 22.281C80.4495 22.8838 80.4114 23.4943 80.4114 24.1047C80.4114 24.1963 80.4114 24.2879 80.4114 24.3794V37.7025Z" fill="#fff"/>
<path fill-rule="evenodd" clip-rule="evenodd" d="M139.216 8.6604C131.854 9.5684 126.329 15.856 126.329 23.273C126.329 30.6899 131.854 36.9775 139.216 37.8856C139.818 37.9619 140.428 38 141.038 38C141.647 38 142.257 37.9619 142.859 37.8856C150.221 36.9775 155.747 30.6899 155.747 23.273C155.747 15.856 150.221 9.5684 142.859 8.6604C142.257 8.5841 141.647 8.5459 141.038 8.5459C140.428 8.5459 139.818 8.5841 139.216 8.6604ZM142.615 14.5283C146.837 15.2837 149.909 18.9846 149.909 23.273C149.909 27.6071 146.776 31.3232 142.501 32.0329C142.021 32.1168 141.525 32.155 141.038 32.155C140.55 32.155 140.054 32.1168 139.574 32.0329L139.452 32.01C135.238 31.2546 132.166 27.5537 132.166 23.2653C132.166 18.9311 135.299 15.215 139.574 14.5054C140.054 14.4215 140.55 14.3833 141.038 14.3833C141.525 14.3833 142.021 14.4215 142.501 14.5054L142.615 14.5283Z" fill="#fff"/>
<path fill-rule="evenodd" clip-rule="evenodd" d="M112.695 15.4669C115.591 16.1231 117.679 18.7252 117.679 21.7011V37.7025C117.679 37.8627 117.808 38.0001 117.976 38.0001H123.219C123.38 38.0001 123.517 37.8703 123.517 37.7025V21.7011C123.517 15.6882 119.089 10.5299 113.159 9.6142C112.542 9.5227 111.925 9.4692 111.3 9.4692C110.675 9.4692 110.058 9.515 109.44 9.6142C103.503 10.5299 99.083 15.6958 99.083 21.7011V37.7025C99.083 37.8627 99.2126 38.0001 99.3802 38.0001H104.624C104.784 38.0001 104.921 37.8703 104.921 37.7025V21.7011C104.921 18.7252 107.009 16.1231 109.905 15.4669C110.362 15.3601 110.827 15.3143 111.3 15.3143C111.772 15.3143 112.237 15.3677 112.695 15.4669Z" fill="#fff"/>
<path fill-rule="evenodd" clip-rule="evenodd" d="M3.29918 1.23584C3.13151 1.23584 3.00195 1.36556 3.00195 1.53343V37.7025C3.00195 37.8627 3.13151 38.0001 3.29918 38.0001H8.5426C8.70264 38.0001 8.83982 37.8704 8.83982 37.7025V1.53343C8.83982 1.37319 8.71026 1.23584 8.5426 1.23584H3.29918Z" fill="#fff"/>
<path fill-rule="evenodd" clip-rule="evenodd" d="M198.677 8.6604C191.315 9.5684 185.79 15.856 185.79 23.273C185.79 30.6899 191.315 36.9775 198.677 37.8856C199.279 37.9619 199.889 38 200.499 38C201.109 38 201.718 37.9619 202.32 37.8856C203.639 37.7253 204.927 37.3819 206.146 36.8707C206.26 36.8249 206.329 36.7257 206.329 36.596V30.5907C206.329 30.4686 206.268 30.377 206.161 30.3236C206.055 30.2702 205.948 30.2778 205.849 30.3542C204.706 31.224 203.372 31.7963 201.954 32.0329C201.474 32.1168 200.979 32.155 200.491 32.155C200.003 32.155 199.508 32.1168 199.028 32.0329L198.906 32.01C194.691 31.2546 191.62 27.5537 191.62 23.2653C191.62 18.9311 194.752 15.215 199.028 14.5054C199.508 14.4215 200.003 14.3833 200.491 14.3833C200.979 14.3833 201.474 14.4215 201.954 14.5054L202.069 14.5283C206.291 15.2837 209.362 18.9846 209.362 23.273V37.237C209.362 37.3972 209.492 37.5345 209.66 37.5345H214.903C215.063 37.5345 215.2 37.4048 215.2 37.237V23.273C215.2 15.856 209.675 9.5684 202.313 8.6604C201.711 8.5841 201.101 8.5459 200.491 8.5459C199.889 8.5459 199.279 8.5841 198.677 8.6604Z" fill="#fff"/>
<path fill-rule="evenodd" clip-rule="evenodd" d="M58.9874 8.6604C51.6253 9.5684 46.0999 15.856 46.0999 23.273C46.0999 30.6899 51.6253 36.9775 58.9874 37.8856C59.5895 37.9619 60.1991 38 60.8088 38C61.4185 38 62.0282 37.9619 62.6303 37.8856C63.9488 37.7253 65.2368 37.3819 66.4562 36.8707C66.5705 36.8249 66.6391 36.7257 66.6391 36.596V30.5907C66.6391 30.4686 66.5781 30.377 66.4714 30.3236C66.3647 30.2702 66.258 30.2778 66.159 30.3542C65.0158 31.224 63.6821 31.7963 62.2645 32.0329C61.7844 32.1168 61.289 32.155 60.8012 32.155C60.3135 32.155 59.8181 32.1168 59.3379 32.0329L59.216 32.01C55.0015 31.2546 51.9301 27.5537 51.9301 23.2653C51.9301 18.9311 55.0624 15.215 59.3379 14.5054C59.8181 14.4215 60.3135 14.3833 60.8012 14.3833C61.289 14.3833 61.7844 14.4215 62.2645 14.5054L62.3788 14.5283C66.601 15.2837 69.6724 18.9846 69.6724 23.273V37.237C69.6724 37.3972 69.8019 37.5345 69.9696 37.5345H75.213C75.373 37.5345 75.5102 37.4048 75.5102 37.237V23.273C75.5102 15.856 69.9848 9.5684 62.6227 8.6604C62.0206 8.5841 61.4109 8.5459 60.8012 8.5459C60.1991 8.5459 59.5971 8.5841 58.9874 8.6604Z" fill="#fff"/>
<path fill-rule="evenodd" clip-rule="evenodd" d="M34.2489 29.553C33.281 30.5221 32.1225 31.2394 30.865 31.6743C30.8345 31.6819 30.8117 31.6896 30.7812 31.7048C29.8971 32.0024 28.9521 32.155 27.9766 32.155C25.9265 32.155 23.9907 31.4454 22.4436 30.2169C21.2851 29.3012 20.3553 28.0879 19.7685 26.6686C19.7609 26.6534 19.7609 26.6457 19.7533 26.6305C19.3265 25.5927 19.0978 24.4558 19.0978 23.2654C19.0978 22.075 19.3341 20.9381 19.7533 19.9003C19.7533 19.8927 19.7609 19.8774 19.7685 19.8698C20.3477 18.4581 21.2699 17.2525 22.4207 16.3368C23.9373 15.1159 25.8731 14.3834 27.969 14.3834C30.0267 14.3834 31.9777 15.1006 33.5172 16.3368C34.6604 17.2525 35.5902 18.4581 36.1694 19.8698C36.177 19.8774 36.177 19.8927 36.1847 19.9003C36.2456 20.0453 36.299 20.1903 36.3523 20.3429H29.2646H22.6722H22.6646H22.1692C21.8491 21.2585 21.6814 22.2429 21.6814 23.2654C21.6814 24.2879 21.8567 25.2722 22.1692 26.1879H22.6646H22.6722H26.0789H36.3523H37.2974H42.175C42.3274 26.1879 42.4493 26.0811 42.4646 25.9285L42.5713 25.0891C42.6475 24.4863 42.6856 23.8758 42.6856 23.2654C42.6856 22.6549 42.6475 22.0445 42.5713 21.4417C41.6643 14.0705 35.3844 8.5383 27.9766 8.5383C20.5687 8.5383 14.2888 14.0705 13.3819 21.4417C13.3057 22.0445 13.2676 22.6549 13.2676 23.2654C13.2676 23.8758 13.3057 24.4863 13.3819 25.0891C14.2888 32.4526 20.5687 37.9924 27.9766 37.9924C31.8863 37.9924 35.6131 36.4511 38.3796 33.6812L39.0502 33.002C39.1646 32.8876 39.1646 32.6968 39.0502 32.5824L35.3463 28.8662C35.232 28.7518 35.0415 28.7518 34.9272 28.8662L34.2489 29.553Z" fill="#fff"/>
<path fill-rule="evenodd" clip-rule="evenodd" d="M126.311 1.29419C124.089 1.29419 122.296 3.09534 122.296 5.3089C122.296 7.52245 124.097 9.3236 126.311 9.3236C128.533 9.3236 130.326 7.52245 130.326 5.3089C130.326 3.09534 128.524 1.29419 126.311 1.29419Z" fill="#fff"/>
</svg>
