<svg width="712" height="131" viewBox="0 0 712 131" fill="none" xmlns="http://www.w3.org/2000/svg">
<g clip-path="url(#clip0)">
<path fill-rule="evenodd" clip-rule="evenodd" d="M561.617 100.832L532.747 35.755C532.568 35.3706 532.261 35.1655 531.852 35.1655H512.495C512.137 35.1655 511.855 35.3193 511.651 35.6269C511.446 35.9345 511.421 36.242 511.574 36.5752L553.485 130.41C553.664 130.795 553.971 131 554.38 131H570.848C571.257 131 571.589 130.795 571.743 130.41L614.191 36.5752C614.344 36.242 614.319 35.9345 614.114 35.6269C613.909 35.3193 613.628 35.1655 613.27 35.1655H593.887C593.478 35.1655 593.146 35.3706 592.992 35.755L563.688 100.832C563.509 101.268 563.1 101.524 562.64 101.524C562.205 101.524 561.796 101.268 561.617 100.832Z" fill="#4F67E1"/>
<path fill-rule="evenodd" clip-rule="evenodd" d="M259.725 130.001C259.725 130.539 260.16 131 260.722 131H278.315C278.852 131 279.313 130.565 279.313 130.001V85.3002C279.313 84.967 279.313 84.6594 279.313 84.3262C279.313 82.6858 279.44 81.0198 279.722 79.4051C282.1 65.0261 294.553 54.4917 309.077 54.4917H312.274C312.811 54.4917 313.271 54.056 313.271 53.4921V35.858C313.271 35.3198 312.836 34.8584 312.274 34.8584H309.077C284.222 34.8584 263.152 53.4409 260.109 78.2004C259.853 80.2252 259.725 82.2757 259.725 84.3262C259.725 84.6338 259.725 84.9413 259.725 85.2489V130.001Z" fill="#4F67E1"/>
<path fill-rule="evenodd" clip-rule="evenodd" d="M457.031 32.4489C432.33 35.499 413.791 56.6189 413.791 81.5323C413.791 106.446 432.33 127.566 457.031 130.616C459.051 130.872 461.097 131 463.143 131C465.188 131 467.234 130.872 469.254 130.616C493.956 127.566 512.495 106.446 512.495 81.5323C512.495 56.6189 493.956 35.499 469.254 32.4489C467.234 32.1926 465.188 32.0645 463.143 32.0645C461.097 32.0645 459.051 32.1926 457.031 32.4489ZM468.436 52.1591C482.602 54.6966 492.907 67.1276 492.907 81.5323C492.907 96.0907 482.398 108.573 468.052 110.957C466.441 111.239 464.779 111.367 463.143 111.367C461.506 111.367 459.844 111.239 458.233 110.957L457.824 110.88C443.683 108.342 433.378 95.9112 433.378 81.5066C433.378 66.9482 443.888 54.4659 458.233 52.0823C459.844 51.8003 461.506 51.6722 463.143 51.6722C464.779 51.6722 466.441 51.8003 468.052 52.0823L468.436 52.1591Z" fill="#4F67E1"/>
<path fill-rule="evenodd" clip-rule="evenodd" d="M368.044 55.3115C377.761 57.5158 384.767 66.2559 384.767 76.252V130C384.767 130.538 385.202 131 385.765 131H403.357C403.894 131 404.355 130.564 404.355 130V76.252C404.355 56.0548 389.498 38.7282 369.604 35.6525C367.532 35.3449 365.461 35.1655 363.364 35.1655C361.268 35.1655 359.196 35.3193 357.125 35.6525C337.205 38.7282 322.374 56.0804 322.374 76.252V130C322.374 130.538 322.809 131 323.371 131H340.964C341.501 131 341.961 130.564 341.961 130V76.252C341.961 66.2559 348.968 57.5158 358.685 55.3115C360.219 54.9527 361.779 54.7989 363.364 54.7989C364.95 54.7989 366.51 54.9783 368.044 55.3115Z" fill="#4F67E1"/>
<path fill-rule="evenodd" clip-rule="evenodd" d="M0.99727 7.50977C0.434708 7.50977 0 7.94549 0 8.50937V130C0 130.539 0.434708 131 0.99727 131H18.5901C19.1271 131 19.5874 130.564 19.5874 130V8.50937C19.5874 7.97112 19.1527 7.50977 18.5901 7.50977H0.99727V7.50977Z" fill="#4F67E1"/>
<path fill-rule="evenodd" clip-rule="evenodd" d="M656.537 32.4489C631.835 35.499 613.296 56.6189 613.296 81.5323C613.296 106.446 631.835 127.566 656.537 130.616C658.557 130.872 660.602 131 662.648 131C664.694 131 666.739 130.872 668.759 130.616C673.183 130.077 677.505 128.924 681.596 127.207C681.98 127.053 682.21 126.72 682.21 126.284V106.112C682.21 105.702 682.005 105.395 681.647 105.215C681.289 105.036 680.931 105.062 680.599 105.318C676.763 108.24 672.288 110.162 667.532 110.957C665.921 111.239 664.259 111.367 662.622 111.367C660.986 111.367 659.324 111.239 657.713 110.957L657.304 110.88C643.163 108.342 632.858 95.9112 632.858 81.5066C632.858 66.9482 643.367 54.4659 657.713 52.0823C659.324 51.8003 660.986 51.6722 662.622 51.6722C664.259 51.6722 665.921 51.8003 667.532 52.0823L667.916 52.1591C682.082 54.6966 692.387 67.1276 692.387 81.5323V128.437C692.387 128.975 692.822 129.437 693.384 129.437H710.977C711.514 129.437 711.974 129.001 711.974 128.437V81.5323C711.974 56.6189 693.435 35.499 668.734 32.4489C666.714 32.1926 664.668 32.0645 662.622 32.0645C660.602 32.0645 658.557 32.1926 656.537 32.4489Z" fill="#4F67E1"/>
<path fill-rule="evenodd" clip-rule="evenodd" d="M187.845 32.4489C163.143 35.499 144.604 56.6189 144.604 81.5323C144.604 106.446 163.143 127.566 187.845 130.616C189.865 130.872 191.91 131 193.956 131C196.002 131 198.047 130.872 200.068 130.616C204.491 130.077 208.813 128.924 212.904 127.207C213.288 127.053 213.518 126.72 213.518 126.284V106.112C213.518 105.702 213.313 105.395 212.955 105.215C212.597 105.036 212.239 105.062 211.907 105.318C208.071 108.24 203.596 110.162 198.84 110.957C197.229 111.239 195.567 111.367 193.931 111.367C192.294 111.367 190.632 111.239 189.021 110.957L188.612 110.88C174.471 108.342 164.166 95.9112 164.166 81.5066C164.166 66.9482 174.676 54.4659 189.021 52.0823C190.632 51.8003 192.294 51.6722 193.931 51.6722C195.567 51.6722 197.229 51.8003 198.84 52.0823L199.224 52.1591C213.39 54.6966 223.695 67.1276 223.695 81.5323V128.437C223.695 128.975 224.13 129.437 224.692 129.437H242.285C242.822 129.437 243.283 129.001 243.283 128.437V81.5323C243.283 56.6189 224.744 35.499 200.042 32.4489C198.022 32.1926 195.976 32.0645 193.931 32.0645C191.91 32.0645 189.89 32.1926 187.845 32.4489Z" fill="#4F67E1"/>
<path fill-rule="evenodd" clip-rule="evenodd" d="M104.841 102.626C101.594 105.881 97.7071 108.291 93.4879 109.752C93.3856 109.777 93.3089 109.803 93.2066 109.854C90.2404 110.854 87.0695 111.367 83.7964 111.367C76.9178 111.367 70.4228 108.983 65.2319 104.856C61.3451 101.781 58.2254 97.7052 56.2564 92.9378C56.2309 92.8866 56.2309 92.8609 56.2053 92.8097C54.7733 89.3238 54.0062 85.5048 54.0062 81.5064C54.0062 77.508 54.7989 73.6889 56.2053 70.2031C56.2053 70.1775 56.2309 70.1262 56.2564 70.1006C58.1998 65.3589 61.2939 61.3092 65.1552 58.2335C70.2438 54.1325 76.7388 51.6719 83.7709 51.6719C90.6751 51.6719 97.2212 54.0812 102.387 58.2335C106.222 61.3092 109.342 65.3589 111.285 70.1006C111.311 70.1262 111.311 70.1775 111.336 70.2031C111.541 70.6901 111.72 71.1771 111.899 71.6897H88.118H65.999H65.9734H64.3113C63.2373 74.7654 62.6748 78.0718 62.6748 81.5064C62.6748 84.9409 63.2629 88.2474 64.3113 91.3231H65.9734H65.999H77.4293H111.899H115.07H131.435C131.947 91.3231 132.356 90.9642 132.407 90.4516L132.765 87.6322C133.021 85.6074 133.149 83.5569 133.149 81.5064C133.149 79.4559 133.021 77.4054 132.765 75.3806C129.722 50.621 108.652 32.0386 83.7964 32.0386C58.9414 32.0386 37.8709 50.621 34.8279 75.3806C34.5722 77.4054 34.4443 79.4559 34.4443 81.5064C34.4443 83.5569 34.5722 85.6074 34.8279 87.6322C37.8709 112.366 58.9414 130.974 83.7964 130.974C96.9144 130.974 109.419 125.797 118.701 116.493L120.951 114.212C121.335 113.827 121.335 113.186 120.951 112.802L108.524 100.32C108.14 99.9351 107.501 99.9351 107.117 100.32L104.841 102.626Z" fill="#4F67E1"/>
<path fill-rule="evenodd" clip-rule="evenodd" d="M414.197 11C407.447 11 402 16.485 402 23.226C402 29.9669 407.472 35.452 414.197 35.452C420.948 35.452 426.395 29.9669 426.395 23.226C426.395 16.485 420.923 11 414.197 11Z" fill="#FF5A8D"/>
</g>
<defs>
<clipPath id="clip0">
<rect width="712" height="131" fill="white"/>
</clipPath>
</defs>
</svg>
