<svg width="230" height="34" viewBox="0 0 230 34" fill="none" xmlns="http://www.w3.org/2000/svg">
<path d="M4.70664 18.05C6.30827 18.05 7.60664 16.7516 7.60664 15.15C7.60664 13.5484 6.30827 12.25 4.70664 12.25C3.10501 12.25 1.80664 13.5484 1.80664 15.15C1.80664 16.7516 3.10501 18.05 4.70664 18.05Z" fill="#4842E4"/>
<path d="M17.9066 18.05C19.5082 18.05 20.8066 16.7516 20.8066 15.15C20.8066 13.5484 19.5082 12.25 17.9066 12.25C16.305 12.25 15.0066 13.5484 15.0066 15.15C15.0066 16.7516 16.305 18.05 17.9066 18.05Z" fill="#4842E4"/>
<path d="M4.70664 29.75C6.30827 29.75 7.60664 28.4516 7.60664 26.85C7.60664 25.2483 6.30827 23.95 4.70664 23.95C3.10501 23.95 1.80664 25.2483 1.80664 26.85C1.80664 28.4516 3.10501 29.75 4.70664 29.75Z" fill="#4842E4"/>
<path d="M17.9066 29.75C19.5082 29.75 20.8066 28.4516 20.8066 26.85C20.8066 25.2483 19.5082 23.95 17.9066 23.95C16.305 23.95 15.0066 25.2483 15.0066 26.85C15.0066 28.4516 16.305 29.75 17.9066 29.75Z" fill="#4842E4"/>
<path fill-rule="evenodd" clip-rule="evenodd" d="M188.538 25.1702L181.037 8.28C180.99 8.1802 180.911 8.127 180.804 8.127H175.775C175.682 8.127 175.608 8.1669 175.555 8.2467C175.502 8.3265 175.496 8.4064 175.535 8.4928L186.425 32.847C186.472 32.9468 186.551 33 186.658 33H190.937C191.043 33 191.129 32.9468 191.169 32.847L202.198 8.4928C202.238 8.4064 202.232 8.3265 202.178 8.2467C202.125 8.1669 202.052 8.127 201.959 8.127H196.923C196.817 8.127 196.73 8.1802 196.69 8.28L189.076 25.1702C189.03 25.2833 188.923 25.3498 188.804 25.3498C188.691 25.3498 188.585 25.2833 188.538 25.1702Z" fill="#4F67E1"/>
<path fill-rule="evenodd" clip-rule="evenodd" d="M110.097 32.7405C110.097 32.8802 110.21 33 110.357 33H114.928C115.067 33 115.187 32.8869 115.187 32.7405V21.1389C115.187 21.0524 115.187 20.9726 115.187 20.8861C115.187 20.4603 115.22 20.0279 115.293 19.6088C115.911 15.8769 119.147 13.1428 122.921 13.1428H123.751C123.891 13.1428 124.01 13.0297 124.01 12.8834V8.3066C124.01 8.1669 123.897 8.0471 123.751 8.0471H122.921C116.463 8.0471 110.988 12.87 110.197 19.2962C110.131 19.8217 110.097 20.3539 110.097 20.8861C110.097 20.9659 110.097 21.0457 110.097 21.1256V32.7405Z" fill="#4F67E1"/>
<path fill-rule="evenodd" clip-rule="evenodd" d="M161.363 7.42179C154.945 8.21339 150.128 13.6949 150.128 20.161C150.128 26.627 154.945 32.1086 161.363 32.9002C161.888 32.9667 162.419 33 162.951 33C163.482 33 164.014 32.9667 164.539 32.9002C170.957 32.1086 175.774 26.627 175.774 20.161C175.774 13.6949 170.957 8.21339 164.539 7.42179C164.014 7.35529 163.482 7.32199 162.951 7.32199C162.419 7.32199 161.888 7.35529 161.363 7.42179ZM164.326 12.5374C168.007 13.196 170.685 16.4224 170.685 20.161C170.685 23.9395 167.954 27.1792 164.227 27.7979C163.808 27.871 163.376 27.9043 162.951 27.9043C162.526 27.9043 162.094 27.871 161.675 27.7979L161.569 27.7779C157.895 27.1193 155.217 23.8929 155.217 20.1543C155.217 16.3758 157.948 13.1361 161.675 12.5175C162.094 12.4443 162.526 12.411 162.951 12.411C163.376 12.411 163.808 12.4443 164.227 12.5175L164.326 12.5374Z" fill="#4F67E1"/>
<path fill-rule="evenodd" clip-rule="evenodd" d="M138.242 13.3557C140.766 13.9278 142.587 16.1962 142.587 18.7906V32.7405C142.587 32.8802 142.7 33 142.846 33H147.417C147.557 33 147.676 32.8869 147.676 32.7405V18.7906C147.676 13.5486 143.816 9.0516 138.647 8.2533C138.109 8.1735 137.571 8.127 137.026 8.127C136.481 8.127 135.943 8.1669 135.405 8.2533C130.229 9.0516 126.375 13.5552 126.375 18.7906V32.7405C126.375 32.8802 126.488 33 126.634 33H131.206C131.345 33 131.465 32.8869 131.465 32.7405V18.7906C131.465 16.1962 133.285 13.9278 135.81 13.3557C136.209 13.2625 136.614 13.2226 137.026 13.2226C137.438 13.2226 137.843 13.2692 138.242 13.3557Z" fill="#4F67E1"/>
<path fill-rule="evenodd" clip-rule="evenodd" d="M42.8714 0.949219C42.7253 0.949219 42.6123 1.06231 42.6123 1.20866V32.7407C42.6123 32.8804 42.7253 33.0001 42.8714 33.0001H47.4426C47.5821 33.0001 47.7017 32.887 47.7017 32.7407V1.20866C47.7017 1.06896 47.5888 0.949219 47.4426 0.949219H42.8714Z" fill="#4F67E1"/>
<path fill-rule="evenodd" clip-rule="evenodd" d="M213.201 7.42179C206.783 8.21339 201.966 13.6949 201.966 20.161C201.966 26.627 206.783 32.1086 213.201 32.9002C213.726 32.9667 214.258 33 214.789 33C215.321 33 215.852 32.9667 216.377 32.9002C217.526 32.7605 218.649 32.4611 219.712 32.0154C219.812 31.9755 219.872 31.889 219.872 31.7759V26.5406C219.872 26.4341 219.819 26.3543 219.726 26.3077C219.633 26.2612 219.54 26.2678 219.453 26.3343C218.457 27.0927 217.294 27.5916 216.058 27.7979C215.639 27.871 215.208 27.9043 214.782 27.9043C214.357 27.9043 213.925 27.871 213.507 27.7979L213.4 27.7779C209.726 27.1193 207.049 23.8929 207.049 20.1543C207.049 16.3758 209.779 13.1361 213.507 12.5175C213.925 12.4443 214.357 12.411 214.782 12.411C215.208 12.411 215.639 12.4443 216.058 12.5175L216.158 12.5374C219.839 13.196 222.516 16.4224 222.516 20.161V32.3347C222.516 32.4744 222.629 32.5942 222.775 32.5942H227.347C227.486 32.5942 227.606 32.4811 227.606 32.3347V20.161C227.606 13.6949 222.789 8.21339 216.37 7.42179C215.845 7.35529 215.314 7.32199 214.782 7.32199C214.258 7.32199 213.726 7.35529 213.201 7.42179Z" fill="#4F67E1"/>
<path fill-rule="evenodd" clip-rule="evenodd" d="M91.4201 7.42179C85.0018 8.21339 80.1848 13.6949 80.1848 20.161C80.1848 26.627 85.0018 32.1086 91.4201 32.9002C91.945 32.9667 92.4765 33 93.008 33C93.5396 33 94.0711 32.9667 94.596 32.9002C95.7454 32.7605 96.8683 32.4611 97.9314 32.0154C98.031 31.9755 98.0908 31.889 98.0908 31.7759V26.5406C98.0908 26.4341 98.0377 26.3543 97.9447 26.3077C97.8516 26.2612 97.7586 26.2678 97.6722 26.3343C96.6756 27.0927 95.5129 27.5916 94.2771 27.7979C93.8585 27.871 93.4266 27.9043 93.0014 27.9043C92.5762 27.9043 92.1443 27.871 91.7257 27.7979L91.6194 27.7779C87.9452 27.1193 85.2676 23.8929 85.2676 20.1543C85.2676 16.3758 87.9983 13.1361 91.7257 12.5175C92.1443 12.4443 92.5762 12.411 93.0014 12.411C93.4266 12.411 93.8585 12.4443 94.2771 12.5175L94.3767 12.5374C98.0576 13.196 100.735 16.4224 100.735 20.161V32.3347C100.735 32.4744 100.848 32.5942 100.994 32.5942H105.566C105.705 32.5942 105.825 32.4811 105.825 32.3347V20.161C105.825 13.6949 101.008 8.21339 94.5894 7.42179C94.0645 7.35529 93.5329 7.32199 93.0014 7.32199C92.4765 7.32199 91.9516 7.35529 91.4201 7.42179Z" fill="#4F67E1"/>
<path fill-rule="evenodd" clip-rule="evenodd" d="M69.8534 25.6359C69.0096 26.4808 67.9997 27.1061 66.9034 27.4853C66.8768 27.4919 66.8569 27.4986 66.8303 27.5119C66.0596 27.7713 65.2357 27.9044 64.3852 27.9044C62.598 27.9044 60.9103 27.2857 59.5616 26.2147C58.5517 25.4164 57.7411 24.3587 57.2295 23.1213C57.2228 23.108 57.2228 23.1014 57.2162 23.0881C56.8441 22.1834 56.6448 21.1922 56.6448 20.1544C56.6448 19.1166 56.8508 18.1254 57.2162 17.2207C57.2162 17.2141 57.2228 17.2008 57.2295 17.1941C57.7344 15.9634 58.5384 14.9124 59.5416 14.1141C60.8638 13.0497 62.5515 12.4111 64.3786 12.4111C66.1725 12.4111 67.8734 13.0364 69.2155 14.1141C70.2122 14.9124 71.0228 15.9634 71.5277 17.1941C71.5344 17.2008 71.5344 17.2141 71.541 17.2207C71.5942 17.3471 71.6407 17.4735 71.6872 17.6066H65.5081H59.7609H59.7543H59.3224C59.0433 18.4048 58.8972 19.263 58.8972 20.1544C58.8972 21.0458 59.05 21.904 59.3224 22.7022H59.7543H59.7609H62.7308H71.6872H72.511H76.7633C76.8962 22.7022 77.0025 22.6091 77.0158 22.4761L77.1088 21.7443C77.1752 21.2188 77.2085 20.6866 77.2085 20.1544C77.2085 19.6222 77.1752 19.09 77.1088 18.5645C76.3182 12.1384 70.8434 7.3154 64.3852 7.3154C57.9271 7.3154 52.4523 12.1384 51.6617 18.5645C51.5952 19.09 51.562 19.6222 51.562 20.1544C51.562 20.6866 51.5952 21.2188 51.6617 21.7443C52.4523 28.1638 57.9271 32.9934 64.3852 32.9934C67.7937 32.9934 71.0427 31.6496 73.4545 29.2348L74.0392 28.6428C74.1389 28.543 74.1389 28.3767 74.0392 28.2769L70.8101 25.0372C70.7105 24.9374 70.5444 24.9374 70.4447 25.0372L69.8534 25.6359Z" fill="#4F67E1"/>
<path fill-rule="evenodd" clip-rule="evenodd" d="M150.112 1C148.175 1 146.612 2.57023 146.612 4.5C146.612 6.4298 148.183 8 150.112 8C152.049 8 153.612 6.4298 153.612 4.5C153.612 2.57023 152.042 1 150.112 1Z" fill="#FF5A8D"/>
</svg>
